<svg id="Layer_1" enable-background="new 0 0 2000 2000" height="512" viewBox="0 0 2000 2000" width="512" xmlns="http://www.w3.org/2000/svg"><g><g><path d="m774.5 1356.9c-75.6 0-149.4-14.4-219.1-42.7-72.3-29.3-137.1-72.4-192.7-127.9-55.6-55.6-98.6-120.4-127.9-192.7-28.4-69.8-42.8-143.5-42.8-219.1s14.4-149.4 42.7-219.1c29.3-72.4 72.3-137.2 127.9-192.8s120.4-98.6 192.7-127.9c69.8-28.3 143.5-42.7 219.1-42.7s149.4 14.4 219.1 42.7c72.3 29.3 137.1 72.4 192.7 127.9 55.6 55.6 98.6 120.4 127.9 192.7 28.3 69.8 42.7 143.5 42.7 219.1s-14.4 149.4-42.7 219.1c-29.3 72.3-72.4 137.1-127.9 192.7-55.6 55.6-120.4 98.6-192.7 127.9-69.7 28.5-143.4 42.8-219 42.8zm0-1036.7c-116.4 0-232.8 44.3-321.4 132.9-85.8 85.8-133.1 200-133.1 321.4s47.3 235.5 133.1 321.3 200 133.1 321.4 133.1 235.5-47.3 321.4-133.1 133.1-200 133.1-321.3-47.3-235.5-133.1-321.4c-88.7-88.6-205.1-132.9-321.4-132.9z"/></g><g><path d="m1744 1808c-16.4 0-32.8-6.2-45.3-18.7l-602.9-602.9c-25-25-25-65.5 0-90.5s65.5-25 90.5 0l602.9 602.9c25 25 25 65.5 0 90.5-12.4 12.4-28.8 18.7-45.2 18.7z"/></g></g></svg>